<svg width="699.3400390625px" height="122.63999023437499px" xmlns="http://www.w3.org/2000/svg" viewBox="-99.67001953124998 13.680004882812504 699.3400390625 122.63999023437499" style="background: rgb(1, 35, 45);" preserveAspectRatio="xMidYMid"><defs><filter id="editing-hover" x="-100%" y="-100%" width="300%" height="300%"><feFlood flood-color="#415362" result="flood"></feFlood><feComposite operator="in" in2="SourceAlpha" in="flood" result="shadow"></feComposite><feOffset dx="3.5" dy="-2.6" in="SourceGraphic" result="offset-1"></feOffset><feOffset dx="-3.5" dy="2.6" in="shadow" result="offset-2"></feOffset><feMerge><feMergeNode in="offset-2"></feMergeNode><feMergeNode in="offset-1"></feMergeNode></feMerge></filter></defs><g filter="url(#editing-hover)"><g transform="translate(2.0950132608413696, 104.44000053405762)"><path d="M0.45-0.32L0.45-0.32L8.51-42.24L8.51-42.24Q16.06-42.88 20.93-42.88L20.93-42.88L20.93-42.88Q25.79-42.88 28.93-42.46L28.93-42.46L28.93-42.46Q32.06-42.05 34.18-40.96L34.18-40.96L34.18-40.96Q38.40-38.91 38.40-33.28L38.40-33.28L38.40-33.28Q38.40-30.02 35.58-27.26L35.58-27.26L35.58-27.26Q32.96-24.77 30.08-24.19L30.08-24.19L30.08-24.19Q33.15-23.68 35.33-21.38L35.33-21.38L35.33-21.38Q37.63-18.94 37.63-15.17L37.63-15.17L37.63-15.17Q37.63-7.87 32.19-3.62L32.19-3.62L32.19-3.62Q26.75 0.64 16.06 0.64L16.06 0.64L16.06 0.64Q8.70 0.64 0.45-0.32ZM17.86-20.61L14.66-4.03L14.66-4.03Q15.23-3.97 15.36-3.97L15.36-3.97L15.94-3.97L15.94-3.97Q21.18-3.97 23.42-7.42L23.42-7.42L23.42-7.42Q25.09-10.11 25.09-15.04L25.09-15.04L25.09-15.04Q25.09-17.66 23.39-19.07L23.39-19.07L23.39-19.07Q21.70-20.48 17.86-20.61L17.86-20.61ZM27.58-33.22L27.58-33.22L27.58-33.22Q27.58-38.53 22.46-38.53L22.46-38.53L21.89-38.53L21.89-38.53Q21.63-38.53 21.25-38.46L21.25-38.46L18.69-24.96L19.33-24.96L19.33-24.96Q27.58-25.15 27.58-33.22ZM57.15-3.52L57.15-3.52L57.15-3.52Q55.17 1.28 48.83 1.28L48.83 1.28L48.83 1.28Q45.63 1.28 43.58-0.96L43.58-0.96L43.58-0.96Q41.92-2.82 41.92-4.93L41.92-4.93L41.92-4.93Q41.92-9.73 44.16-20.22L44.16-20.22L48.83-44.80L61.82-46.08L55.62-13.70L55.62-13.70Q54.53-8.96 54.53-7.30L54.53-7.30L54.53-7.30Q54.53-3.65 57.15-3.52ZM65.38-1.92L65.38-1.92L65.38-1.92Q63.87-3.58 63.20-6.21L63.20-6.21L63.20-6.21Q62.53-8.83 62.53-13.12L62.53-13.12L62.53-13.12Q62.53-17.41 64-21.31L64-21.31L64-21.31Q65.47-25.22 68.16-28.03L68.16-28.03L68.16-28.03Q73.66-33.92 82.75-33.92L82.75-33.92L82.75-33.92Q86.02-33.92 88.38-32.83L88.38-32.83L99.33-33.92L94.59-8.96L94.59-8.96Q94.40-8.19 94.40-6.78L94.40-6.78L94.40-6.78Q94.40-5.38 95.26-4.48L95.26-4.48L95.26-4.48Q96.13-3.58 97.41-3.46L97.41-3.46L97.41-3.46Q96.77-1.28 94.43 0L94.43 0L94.43 0Q92.10 1.28 89.47 1.28L89.47 1.28L89.47 1.28Q86.85 1.28 85.09 0.29L85.09 0.29L85.09 0.29Q83.33-0.70 82.82-2.37L82.82-2.37L82.82-2.37Q81.79-0.77 79.62 0.26L79.62 0.26L79.62 0.26Q77.44 1.28 74.53 1.28L74.53 1.28L74.53 1.28Q71.62 1.28 69.25 0.51L69.25 0.51L69.25 0.51Q66.88-0.26 65.38-1.92ZM78.88-27.90L78.88-27.90L78.88-27.90Q78.14-26.75 77.50-24.80L77.50-24.80L77.50-24.80Q76.86-22.85 75.81-17.63L75.81-17.63L75.81-17.63Q74.75-12.42 74.75-8.70L74.75-8.70L74.75-8.70Q74.75-4.99 75.33-3.90L75.33-3.90L75.33-3.90Q75.90-2.82 76.93-2.82L76.93-2.82L76.93-2.82Q78.98-2.82 80.48-4.77L80.48-4.77L80.48-4.77Q81.98-6.72 82.56-10.18L82.56-10.18L85.95-28.93L85.95-28.93Q84.61-30.08 83.04-30.08L83.04-30.08L83.04-30.08Q81.47-30.08 80.54-29.57L80.54-29.57L80.54-29.57Q79.62-29.06 78.88-27.90ZM129.86 1.28L129.86 1.28L129.86 1.28Q122.11 1.28 122.11-4.74L122.11-4.74L122.11-4.74Q122.18-6.40 122.69-9.22L122.69-9.22L123.84-15.10L123.84-15.10Q125.57-23.42 125.57-25.28L125.57-25.28L125.57-25.28Q125.57-28.99 123.39-28.99L123.39-28.99L123.39-28.99Q119.74-28.99 117.82-19.46L117.82-19.46L114.05 0L101.18 1.28L107.84-32.70L118.34-33.92L117.31-27.65L117.31-27.65Q120.32-33.92 129.54-33.92L129.54-33.92L129.54-33.92Q134.02-33.92 135.90-32.03L135.90-32.03L135.90-32.03Q137.79-30.14 137.79-25.92L137.79-25.92L137.79-25.92Q137.79-21.95 135.74-12.67L135.74-12.67L135.74-12.67Q134.78-8.51 134.78-6.94L134.78-6.94L134.78-6.94Q134.78-5.38 135.65-4.48L135.65-4.48L135.65-4.48Q136.51-3.58 137.79-3.46L137.79-3.46L137.79-3.46Q137.15-1.28 134.94 0L134.94 0L134.94 0Q132.74 1.28 129.86 1.28ZM159.42-30.34L159.42-30.34L159.42-30.34Q162.88-33.92 170.18-33.92L170.18-33.92L170.18-33.92Q174.21-33.92 176.42-31.78L176.42-31.78L176.42-31.78Q178.62-29.63 178.62-25.70L178.62-25.70L178.62-25.70Q178.62-21.76 176.42-18.98L176.42-18.98L176.42-18.98Q174.21-16.19 170.11-15.04L170.11-15.04L170.11-15.04Q170.43-13.76 170.88-12.42L170.88-12.42L171.78-9.86L171.78-9.86Q172.99-6.59 173.95-5.44L173.95-5.44L173.95-5.44Q174.91-4.29 176.19-3.90L176.19-3.90L176.19-3.90Q175.49-1.28 172.93 0.13L172.93 0.13L172.93 0.13Q170.88 1.28 168.06 1.28L168.06 1.28L168.06 1.28Q159.81 1.28 158.72-11.46L158.72-11.46L158.72-11.46Q158.53-13.25 158.53-15.04L158.53-15.04L158.53-15.04Q161.73-15.94 163.97-18.94L163.97-18.94L163.97-18.94Q166.21-21.95 166.21-25.47L166.21-25.47L166.21-25.47Q166.21-28.99 163.71-28.99L163.71-28.99L163.71-28.99Q161.92-28.99 160.51-27.01L160.51-27.01L160.51-27.01Q159.10-25.02 158.46-21.63L158.46-21.63L154.24 0L141.31 1.28L150.27-44.80L163.14-46.08L161.66-38.46L161.66-38.46Q160.70-33.09 159.42-30.34ZM207.87 0L194.18 0L201.98-42.05L201.98-42.05Q208.32-42.75 217.57-42.75L217.57-42.75L217.57-42.75Q226.82-42.75 231.10-40.06L231.10-40.06L231.10-40.06Q235.39-37.38 235.39-31.97L235.39-31.97L235.39-31.97Q235.39-26.56 232.61-23.17L232.61-23.17L232.61-23.17Q229.82-19.78 225.02-18.69L225.02-18.69L225.02-18.69Q226.11-13.38 228.61-9.09L228.61-9.09L228.61-9.09Q230.91-5.06 233.60-3.78L233.60-3.78L233.60-3.78Q232.64-1.09 230.69 0.10L230.69 0.10L230.69 0.10Q228.74 1.28 225.95 1.28L225.95 1.28L225.95 1.28Q223.17 1.28 220.99-0.35L220.99-0.35L220.99-0.35Q218.82-1.98 217.09-4.99L217.09-4.99L217.09-4.99Q213.44-11.52 213.06-21.82L213.06-21.82L213.50-21.82L213.50-21.82Q218.24-21.95 220.61-24.42L220.61-24.42L220.61-24.42Q222.98-26.88 222.98-32.06L222.98-32.06L222.98-32.06Q222.98-38.53 217.54-38.78L217.54-38.78L216.13-38.78L216.13-38.78Q215.55-38.78 215.23-38.72L215.23-38.72L207.87 0ZM264.26-10.82L264.26-10.82L264.26-10.82Q265.86-9.73 265.86-7.33L265.86-7.33L265.86-7.33Q265.86-4.93 264.64-3.39L264.64-3.39L264.64-3.39Q263.42-1.86 261.44-0.83L261.44-0.83L261.44-0.83Q257.34 1.28 252.93 1.28L252.93 1.28L252.93 1.28Q248.51 1.28 245.92 0.32L245.92 0.32L245.92 0.32Q243.33-0.64 241.60-2.43L241.60-2.43L241.60-2.43Q238.21-5.82 238.21-12.03L238.21-12.03L238.21-12.03Q238.21-21.70 243.46-27.58L243.46-27.58L243.46-27.58Q249.09-33.92 258.88-33.92L258.88-33.92L258.88-33.92Q264.96-33.92 267.97-31.36L267.97-31.36L267.97-31.36Q270.21-29.44 270.21-26.30L270.21-26.30L270.21-26.30Q270.21-15.04 250.75-15.04L250.75-15.04L250.75-15.04Q250.50-13.38 250.50-11.97L250.50-11.97L250.50-11.97Q250.50-9.02 251.81-7.90L251.81-7.90L251.81-7.90Q253.12-6.78 255.55-6.78L255.55-6.78L255.55-6.78Q257.98-6.78 260.58-7.90L260.58-7.90L260.58-7.90Q263.17-9.02 264.26-10.82ZM251.20-17.79L251.20-17.79L251.20-17.79Q255.74-17.79 258.37-20.61L258.37-20.61L258.37-20.61Q260.99-23.30 260.99-27.58L260.99-27.58L260.99-27.58Q260.99-29.06 260.45-29.86L260.45-29.86L260.45-29.86Q259.90-30.66 258.82-30.66L258.82-30.66L258.82-30.66Q257.73-30.66 256.80-30.24L256.80-30.24L256.80-30.24Q255.87-29.82 254.91-28.42L254.91-28.42L254.91-28.42Q252.54-25.22 251.20-17.79ZM275.17-1.92L275.17-1.92L275.17-1.92Q273.66-3.58 272.99-6.21L272.99-6.21L272.99-6.21Q272.32-8.83 272.32-13.12L272.32-13.12L272.32-13.12Q272.32-17.41 273.79-21.31L273.79-21.31L273.79-21.31Q275.26-25.22 277.95-28.03L277.95-28.03L277.95-28.03Q283.46-33.92 292.54-33.92L292.54-33.92L292.54-33.92Q295.81-33.92 298.18-32.83L298.18-32.83L309.12-33.92L304.38-8.96L304.38-8.96Q304.19-8.19 304.19-6.78L304.19-6.78L304.19-6.78Q304.19-5.38 305.06-4.48L305.06-4.48L305.06-4.48Q305.92-3.58 307.20-3.46L307.20-3.46L307.20-3.46Q306.56-1.28 304.22 0L304.22 0L304.22 0Q301.89 1.28 299.26 1.28L299.26 1.28L299.26 1.28Q296.64 1.28 294.88 0.29L294.88 0.29L294.88 0.29Q293.12-0.70 292.61-2.37L292.61-2.37L292.61-2.37Q291.58-0.77 289.41 0.26L289.41 0.26L289.41 0.26Q287.23 1.28 284.32 1.28L284.32 1.28L284.32 1.28Q281.41 1.28 279.04 0.51L279.04 0.51L279.04 0.51Q276.67-0.26 275.17-1.92ZM288.67-27.90L288.67-27.90L288.67-27.90Q287.94-26.75 287.30-24.80L287.30-24.80L287.30-24.80Q286.66-22.85 285.60-17.63L285.60-17.63L285.60-17.63Q284.54-12.42 284.54-8.70L284.54-8.70L284.54-8.70Q284.54-4.99 285.12-3.90L285.12-3.90L285.12-3.90Q285.70-2.82 286.72-2.82L286.72-2.82L286.72-2.82Q288.77-2.82 290.27-4.77L290.27-4.77L290.27-4.77Q291.78-6.72 292.35-10.18L292.35-10.18L295.74-28.93L295.74-28.93Q294.40-30.08 292.83-30.08L292.83-30.08L292.83-30.08Q291.26-30.08 290.34-29.57L290.34-29.57L290.34-29.57Q289.41-29.06 288.67-27.90ZM343.74-26.62L343.74-26.62L343.74-26.62Q343.74-23.94 341.50-22.27L341.50-22.27L341.50-22.27Q339.26-20.61 335.62-20.61L335.62-20.61L335.62-20.61Q334.08-20.61 333.18-21.06L333.18-21.06L333.18-21.06Q333.89-22.72 334.11-24.80L334.11-24.80L334.11-24.80Q334.34-26.88 334.34-27.46L334.34-27.46L334.34-27.46Q334.34-30.14 332.48-30.14L332.48-30.14L332.48-30.14Q331.20-30.14 329.76-28.54L329.76-28.54L329.76-28.54Q328.32-26.94 327.10-24.45L327.10-24.45L327.10-24.45Q324.42-18.69 324.42-12.86L324.42-12.86L324.42-12.86Q324.42-9.66 325.63-8.22L325.63-8.22L325.63-8.22Q326.85-6.78 329.54-6.78L329.54-6.78L329.54-6.78Q333.25-6.78 336.19-9.86L336.19-9.86L336.19-9.86Q337.02-10.82 337.47-11.90L337.47-11.90L337.47-11.90Q339.90-10.62 339.90-7.10L339.90-7.10L339.90-7.10Q339.90-3.52 335.94-1.15L335.94-1.15L335.94-1.15Q331.84 1.28 325.31 1.28L325.31 1.28L325.31 1.28Q312.32 1.28 312.32-12.48L312.32-12.48L312.32-12.48Q312.32-22.53 318.02-28.29L318.02-28.29L318.02-28.29Q323.52-33.92 333.63-33.92L333.63-33.92L333.63-33.92Q343.74-33.92 343.74-26.62ZM346.50-6.40L346.50-6.40L346.50-6.40Q346.50-8.13 347.39-12.48L347.39-12.48L350.78-29.76L347.01-29.76L347.26-31.68L347.26-31.68Q354.94-33.98 362.37-39.62L362.37-39.62L365.44-39.62L363.90-32.64L368.90-32.64L368.32-29.76L363.39-29.76L360.13-12.48L360.13-12.48Q359.30-8.51 359.30-7.17L359.30-7.17L359.30-7.17Q359.30-4.10 361.98-3.46L361.98-3.46L361.98-3.46Q361.34-1.28 359.04 0L359.04 0L359.04 0Q356.74 1.28 353.47 1.28L353.47 1.28L353.47 1.28Q350.21 1.28 348.35-0.77L348.35-0.77L348.35-0.77Q346.50-2.82 346.50-6.40ZM409.86 1.28L409.86 1.28L409.86 1.28Q401.66 1.28 400.90-10.37L400.90-10.37L389.89-10.37L389.89-10.37Q388.61-7.42 387.71-4.86L387.71-4.86L386.05 0L377.09 0L397.25-42.24L411.01-42.24L413.70-11.14L413.70-11.14Q414.34-4.42 416.90-2.43L416.90-2.43L416.90-2.43Q415.04 1.28 409.86 1.28ZM395.39-23.17L391.87-15.04L400.70-15.04L399.94-31.49L399.94-33.22L395.39-23.17ZM450.43-4.38L450.43-4.38L450.43-4.38Q447.74-1.66 444.06-0.19L444.06-0.19L444.06-0.19Q440.38 1.28 436.74 1.28L436.74 1.28L436.74 1.28Q433.09 1.28 431.81 0.64L431.81 0.64L429.82 11.52L416.83 12.80L425.66-32.64L436.10-33.73L435.26-29.31L435.26-29.31Q437.95-33.86 443.52-33.86L443.52-33.86L443.52-33.86Q449.79-33.86 453.12-29.82L453.12-29.82L453.12-29.82Q456.06-26.18 456.06-20.61L456.06-20.61L456.06-20.61Q456.06-15.04 454.59-11.07L454.59-11.07L454.59-11.07Q453.12-7.10 450.43-4.38ZM435.97-22.34L432.58-3.58L432.58-3.58Q433.92-2.43 435.58-2.43L435.58-2.43L435.58-2.43Q437.25-2.43 438.21-3.07L438.21-3.07L438.21-3.07Q439.17-3.71 439.87-4.99L439.87-4.99L439.87-4.99Q441.79-8.45 443.33-18.94L443.33-18.94L443.33-18.94Q443.78-22.02 443.78-25.02L443.78-25.02L443.78-25.02Q443.78-28.03 443.10-28.99L443.10-28.99L443.10-28.99Q442.43-29.95 441.15-29.95L441.15-29.95L441.15-29.95Q437.25-29.95 435.97-22.34L435.97-22.34ZM489.73-4.38L489.73-4.38L489.73-4.38Q487.04-1.66 483.36-0.19L483.36-0.19L483.36-0.19Q479.68 1.28 476.03 1.28L476.03 1.28L476.03 1.28Q472.38 1.28 471.10 0.64L471.10 0.64L469.12 11.52L456.13 12.80L464.96-32.64L475.39-33.73L474.56-29.31L474.56-29.31Q477.25-33.86 482.82-33.86L482.82-33.86L482.82-33.86Q489.09-33.86 492.42-29.82L492.42-29.82L492.42-29.82Q495.36-26.18 495.36-20.61L495.36-20.61L495.36-20.61Q495.36-15.04 493.89-11.07L493.89-11.07L493.89-11.07Q492.42-7.10 489.73-4.38ZM475.26-22.34L471.87-3.58L471.87-3.58Q473.22-2.43 474.88-2.43L474.88-2.43L474.88-2.43Q476.54-2.43 477.50-3.07L477.50-3.07L477.50-3.07Q478.46-3.71 479.17-4.99L479.17-4.99L479.17-4.99Q481.09-8.45 482.62-18.94L482.62-18.94L482.62-18.94Q483.07-22.02 483.07-25.02L483.07-25.02L483.07-25.02Q483.07-28.03 482.40-28.99L482.40-28.99L482.40-28.99Q481.73-29.95 480.45-29.95L480.45-29.95L480.45-29.95Q476.54-29.95 475.26-22.34L475.26-22.34Z" fill="#61dafb"></path></g></g><style>text {
  font-size: 64px;
  font-family: Arial Black;
  dominant-baseline: central;
  text-anchor: middle;
}</style></svg>