<svg width="64px" height="64px" xmlns="http://www.w3.org/2000/svg" viewBox="42.720007324218756 -54.44000854492185 414.5599853515625 258.8800170898437" style="background: rgb(1, 35, 45);" preserveAspectRatio="xMidYMid"><defs><filter id="editing-hover" x="-100%" y="-100%" width="300%" height="300%"><feFlood flood-color="#5699d2" result="flood"></feFlood><feComposite operator="in" in2="SourceAlpha" in="flood" result="shadow"></feComposite><feOffset dx="2.2" dy="-1.3" in="SourceGraphic" result="offset-1"></feOffset><feOffset dx="-2.2" dy="1.3" in="shadow" result="offset-2"></feOffset><feMerge><feMergeNode in="offset-2"></feMergeNode><feMergeNode in="offset-1"></feMergeNode></feMerge></filter></defs><g filter="url(#editing-hover)"><g transform="translate(108.17499089241028, 126.75000190734863)"><path d="M1.05-0.75L1.05-0.75L19.95-99L19.95-99Q37.65-100.50 49.05-100.50L49.05-100.50L49.05-100.50Q60.45-100.50 67.80-99.52L67.80-99.52L67.80-99.52Q75.15-98.55 80.10-96L80.10-96L80.10-96Q90-91.20 90-78L90-78L90-78Q90-70.35 83.40-63.90L83.40-63.90L83.40-63.90Q77.25-58.05 70.50-56.70L70.50-56.70L70.50-56.70Q77.70-55.50 82.80-50.10L82.80-50.10L82.80-50.10Q88.20-44.40 88.20-35.55L88.20-35.55L88.20-35.55Q88.20-18.45 75.45-8.47L75.45-8.47L75.45-8.47Q62.70 1.50 37.65 1.50L37.65 1.50L37.65 1.50Q20.40 1.50 1.05-0.75ZM41.85-48.30L34.35-9.45L34.35-9.45Q35.70-9.30 36-9.30L36-9.30L37.35-9.30L37.35-9.30Q49.65-9.30 54.90-17.40L54.90-17.40L54.90-17.40Q58.80-23.70 58.80-35.25L58.80-35.25L58.80-35.25Q58.80-41.40 54.82-44.70L54.82-44.70L54.82-44.70Q50.85-48 41.85-48.30L41.85-48.30ZM64.65-77.85L64.65-77.85L64.65-77.85Q64.65-90.30 52.65-90.30L52.65-90.30L51.30-90.30L51.30-90.30Q50.70-90.30 49.80-90.15L49.80-90.15L43.80-58.50L45.30-58.50L45.30-58.50Q64.65-58.95 64.65-77.85ZM128.85 0L96.75 0L115.05-98.55L115.05-98.55Q129.90-100.20 151.57-100.20L151.57-100.20L151.57-100.20Q173.25-100.20 183.30-93.90L183.30-93.90L183.30-93.90Q193.35-87.60 193.35-74.92L193.35-74.92L193.35-74.92Q193.35-62.25 186.82-54.30L186.82-54.30L186.82-54.30Q180.30-46.35 169.05-43.80L169.05-43.80L169.05-43.80Q171.60-31.35 177.45-21.30L177.45-21.30L177.45-21.30Q182.85-11.85 189.15-8.85L189.15-8.85L189.15-8.85Q186.90-2.55 182.32 0.22L182.32 0.22L182.32 0.22Q177.75 3 171.22 3L171.22 3L171.22 3Q164.70 3 159.60-0.82L159.60-0.82L159.60-0.82Q154.50-4.65 150.45-11.70L150.45-11.70L150.45-11.70Q141.90-27 141-51.15L141-51.15L142.05-51.15L142.05-51.15Q153.15-51.45 158.70-57.23L158.70-57.23L158.70-57.23Q164.25-63 164.25-75.15L164.25-75.15L164.25-75.15Q164.25-90.30 151.50-90.90L151.50-90.90L148.20-90.90L148.20-90.90Q146.85-90.90 146.10-90.75L146.10-90.75L128.85 0ZM266.10 3L266.10 3L266.10 3Q246.90 3 245.10-24.30L245.10-24.30L219.30-24.30L219.30-24.30Q216.30-17.40 214.20-11.40L214.20-11.40L210.30 0L189.30 0L236.55-99L268.80-99L275.10-26.10L275.10-26.10Q276.60-10.35 282.60-5.70L282.60-5.70L282.60-5.70Q278.25 3 266.10 3ZM232.20-54.30L223.95-35.25L244.65-35.25L242.85-73.80L242.85-77.85L232.20-54.30Z" fill="#61dafb"></path></g></g><style>text {
  font-size: 64px;
  font-family: Arial Black;
  dominant-baseline: central;
  text-anchor: middle;
}</style></svg>